<?xml version="1.0" encoding="UTF-8" standalone="no"?>
<!-- Generator: Adobe Illustrator 18.1.1, SVG Export Plug-In . SVG Version: 6.00 Build 0)  -->

<svg
   version="1.1"
   id="Capa_1"
   x="0px"
   y="0px"
   viewBox="0 0 23.795869 23.795869"
   xml:space="preserve"
   width="31.999992"
   height="31.999992"
   sodipodi:docname="favicon.svg"
   inkscape:version="1.2.1 (9c6d41e410, 2022-07-14, custom)"
   xmlns:inkscape="http://www.inkscape.org/namespaces/inkscape"
   xmlns:sodipodi="http://sodipodi.sourceforge.net/DTD/sodipodi-0.dtd"
   xmlns="http://www.w3.org/2000/svg"
   xmlns:svg="http://www.w3.org/2000/svg">
   <defs
      id="defs117" />
   <sodipodi:namedview
      id="namedview115"
      pagecolor="#ffffff"
      bordercolor="#000000"
      borderopacity="0.25"
      inkscape:showpageshadow="2"
      inkscape:pageopacity="0.0"
      inkscape:pagecheckerboard="0"
      inkscape:deskcolor="#d1d1d1"
      showgrid="false"
      inkscape:zoom="24.107922"
      inkscape:cx="8.7315697"
      inkscape:cy="16.944638"
      inkscape:window-width="1624"
      inkscape:window-height="1342"
      inkscape:window-x="10"
      inkscape:window-y="10"
      inkscape:window-maximized="1"
      inkscape:current-layer="g82" />
   <g
      id="g82"
      style="fill:#ff6600"
      transform="translate(-177.27693,-177.27693)">
      <path
         d="m 189.17487,181.51815 c -4.2287,0 -7.65672,3.42802 -7.65672,7.65672 0,4.22869 3.42802,7.65671 7.65672,7.65671 4.22869,0 7.65671,-3.42802 7.65671,-7.65671 0,-4.2287 -3.42802,-7.65672 -7.65671,-7.65672 z m 4.36938,12.00028 c -1.16624,1.16625 -2.71771,1.80829 -4.36934,1.80829 -1.65163,0 -3.20339,-0.64228 -4.36939,-1.80829 -1.16097,-1.16141 -1.80064,-2.70392 -1.80064,-4.34356 0,-1.63984 0.63967,-3.18259 1.80064,-4.34357 1.166,-1.16624 2.71772,-1.80828 4.36935,-1.80828 1.65122,0 3.20314,0.64228 4.36914,1.80828 1.16122,1.16098 1.80041,2.70369 1.80041,4.34357 2.3e-4,1.63964 -0.63919,3.18235 -1.80017,4.34356 z"
         fill="#83c4f2"
         id="path80"
         style="fill:#ff6600;stroke-width:0.0402208" />
   </g>
   <g
      id="g84"
      transform="translate(-177.27693,-177.27693)"></g>
   <g
      id="g86"
      transform="translate(-177.27693,-177.27693)"></g>
   <g
      id="g88"
      transform="translate(-177.27693,-177.27693)"></g>
   <g
      id="g90"
      transform="translate(-177.27693,-177.27693)"></g>
   <g
      id="g92"
      transform="translate(-177.27693,-177.27693)"></g>
   <g
      id="g94"
      transform="translate(-177.27693,-177.27693)"></g>
   <g
      id="g96"
      transform="translate(-177.27693,-177.27693)"></g>
   <g
      id="g98"
      transform="translate(-177.27693,-177.27693)"></g>
   <g
      id="g100"
      transform="translate(-177.27693,-177.27693)"></g>
   <g
      id="g102"
      transform="translate(-177.27693,-177.27693)"></g>
   <g
      id="g104"
      transform="translate(-177.27693,-177.27693)"></g>
   <g
      id="g106"
      transform="translate(-177.27693,-177.27693)"></g>
   <g
      id="g108"
      transform="translate(-177.27693,-177.27693)"></g>
   <g
      id="g110"
      transform="translate(-177.27693,-177.27693)"></g>
   <g
      id="g112"
      transform="translate(-177.27693,-177.27693)"></g>
</svg>